PathFileType  4	(X/Y/Z) C:\Users\antoi\Documents\MyRepositories\mobilecap\ResultsAnalysis
DataRate	CameraRate	NumFrames	NumMarkers	Units	OrigDataRate	OrigDataStartFrame	OrigNumFrames
100.0	100.0	4	51	mm	100.0	69	136
Frame#	Time	r_knee			r_shank_antsup			r_ankle			r_calc			r_5meta			r_toe			L_knee			L_shank_antsup			L_ankle			L_calc			L_5meta			L_toe			r_sh2			r_sh3			r_sh4			L_sh2			L_sh3			r_thigh1			r_thigh2			r_thigh3			r_thigh4			r_thigh5			L_thigh1			L_thigh2			L_thigh3			L_thigh4			r.ASIS			r.PSIS			L.ASIS			L.PSIS			C7			R_Shoulder			L_Shoulder			R_Sternum			L_Sternum			R_humerus			R_elbow_med			R_elbow_lat			R_forearm			R_wrist_radius			R_wrist_ulna			L_humerus			L_elbow_med			L_elbow_lat			L_forearm			L_wrist_radius			L_wrist_ulna			R_HJC			L_HJC			R_HJC_reg			L_HJC_reg			
		X1	Y1	Z1	X2	Y2	Z2	X3	Y3	Z3	X4	Y4	Z4	X5	Y5	Z5	X6	Y6	Z6	X7	Y7	Z7	X8	Y8	Z8	X9	Y9	Z9	X10	Y10	Z10	X11	Y11	Z11	X12	Y12	Z12	X13	Y13	Z13	X14	Y14	Z14	X15	Y15	Z15	X16	Y16	Z16	X17	Y17	Z17	X18	Y18	Z18	X19	Y19	Z19	X20	Y20	Z20	X21	Y21	Z21	X22	Y22	Z22	X23	Y23	Z23	X24	Y24	Z24	X25	Y25	Z25	X26	Y26	Z26	X27	Y27	Z27	X28	Y28	Z28	X29	Y29	Z29	X30	Y30	Z30	X31	Y31	Z31	X32	Y32	Z32	X33	Y33	Z33	X34	Y34	Z34	X35	Y35	Z35	X36	Y36	Z36	X37	Y37	Z37	X38	Y38	Z38	X39	Y39	Z39	X40	Y40	Z40	X41	Y41	Z41	X42	Y42	Z42	X43	Y43	Z43	X44	Y44	Z44	X45	Y45	Z45	X46	Y46	Z46	X47	Y47	Z47	X48	Y48	Z48	X49	Y49	Z49	X50	Y50	Z50	X51	Y51	Z51	

69	0.68000000	590.19806	515.40143	-41.29593	531.32370	397.79305	-58.75542	236.56420	231.42998	-119.00116	184.60426	266.84707	-177.29495	239.61060	67.03798	-95.42096	295.40726	65.79932	-156.29697	778.20968	535.69162	-364.42928	832.46182	436.94024	-337.47043	776.09755	90.83728	-319.50687	713.50986	65.68547	-265.30119	916.82708	36.39453	-346.71907	949.05423	61.11840	-278.86946	455.87095	316.79902	-89.80466	472.18431	437.64412	-28.61363	395.52120	352.17727	-43.38957	755.68960	423.64938	-385.69503	792.63023	308.27429	-386.15552	720.78636	736.52195	-47.84274	714.65561	624.07443	-58.69896	670.08956	600.43126	-12.77184	621.18240	735.49197	7.11312	615.57029	618.27046	-9.70421	784.37539	798.23800	-393.34370	829.38635	669.60108	-372.19091	684.50914	755.32992	-427.48739	729.60222	628.36265	-397.33197	709.43623	1018.32029	-70.82134	508.71164	1055.62508	-163.94802	725.01605	1032.00993	-333.72622	509.89407	1059.61217	-262.44251	576.07528	1560.89789	-221.24533	648.91145	1494.48241	-35.73884	633.91591	1498.96415	-399.73781	712.90271	1478.91049	-199.82474	709.33618	1474.20006	-247.62102	659.37190	1326.21354	40.72098	580.81166	1103.63977	2.75726	597.99560	1128.67871	80.41788	715.91931	998.85039	88.28795	769.16496	890.25859	97.06873	739.49507	874.54767	123.28822	604.84074	1325.13925	-480.62834	499.92672	1131.34291	-422.42429	522.41121	1141.62119	-500.74915	591.65827	987.95583	-496.31915	592.93489	869.70223	-522.01602	556.99184	876.47703	-554.65663	630.04239	939.89653	-114.33283	644.65976	940.20954	-327.22895	641.70670	942.54150	-112.10587	643.79123	949.58603	-286.00802	
70	0.69000000	618.12591	514.42986	-38.60313	557.83103	398.51951	-56.69639	258.69602	241.61676	-116.47665	210.89462	281.85099	-174.51627	249.44345	78.04247	-94.39385	305.40445	71.58322	-154.54170	786.59990	535.51472	-364.96634	839.34572	435.77169	-337.85475	776.43570	90.82724	-319.20655	713.64942	65.71772	-265.27592	916.81550	36.44040	-346.79763	949.26471	60.70670	-278.82716	480.07735	319.78631	-87.94982	500.06132	439.50841	-25.50886	420.94410	356.33831	-40.84501	762.32446	423.78697	-385.93166	797.02227	307.81028	-386.13718	741.47602	739.14663	-46.91677	738.74387	626.34756	-56.57629	695.36734	601.59340	-10.55903	641.98780	735.33304	8.33300	640.23022	617.83734	-7.59945	795.85613	797.91685	-394.16111	839.13044	668.67416	-373.19266	695.38506	756.36846	-428.06402	738.32072	628.62094	-398.01615	722.62999	1019.35667	-72.02803	521.63542	1056.44078	-164.53755	737.87605	1033.44557	-334.98596	523.14598	1060.56307	-263.00275	589.75307	1562.21115	-222.61930	662.22095	1496.67152	-36.56240	648.75835	1499.65023	-400.50145	726.59290	1480.25400	-200.38217	723.13920	1475.32719	-248.14499	671.53205	1328.28506	40.00585	591.40449	1106.58085	0.90823	608.12933	1131.15000	78.90336	724.16247	999.54579	87.51929	775.71685	889.92421	96.43454	745.58414	874.79594	122.54161	622.36838	1325.38964	-481.11944	518.52310	1130.66291	-423.95830	542.25772	1140.80822	-501.91417	613.79642	988.34444	-495.80282	617.92795	870.20730	-521.04677	581.85623	875.99573	-553.88639	643.43452	940.83365	-115.42762	657.66901	941.51048	-328.35145	654.61702	943.49445	-113.69826	657.28329	950.77941	-287.61202	
71	0.70000000	646.00588	514.13772	-36.10026	584.85376	399.57443	-54.97997	282.07098	251.30054	-114.27583	238.52057	295.55932	-172.37080	261.57629	89.27045	-93.26741	317.72829	77.84276	-152.38254	794.45241	535.22141	-365.39415	845.76229	434.58585	-338.22318	776.78701	90.80405	-318.88320	713.81961	65.77393	-265.20185	916.82569	36.45760	-346.85961	949.46768	60.35000	-278.80141	505.23023	322.94354	-86.44491	528.45743	441.38308	-22.52893	447.24545	360.23154	-38.42912	768.37196	423.87543	-385.95673	800.97178	307.37185	-386.04516	761.97250	742.16446	-46.09381	762.57977	629.19341	-54.74889	720.40786	603.32254	-8.57808	662.64567	735.59212	9.52173	664.70831	617.97611	-5.68211	806.81517	797.35243	-394.90139	848.25944	667.42924	-374.10364	705.89620	757.20063	-428.49021	746.38767	628.65596	-398.44398	735.54527	1020.44204	-72.95473	534.40185	1057.13258	-165.35931	750.51974	1034.45169	-336.03406	536.19206	1061.46065	-263.73394	603.29383	1563.50939	-223.84783	675.35977	1498.62776	-37.24494	663.49473	1500.27922	-401.12670	740.12220	1481.46137	-200.77787	736.81007	1476.36937	-248.50987	683.57172	1330.11829	39.37811	601.89680	1109.29892	-0.72346	618.28285	1133.39226	77.55137	732.37040	1000.06091	86.89560	782.22643	889.45468	95.90781	751.61420	874.92034	121.92918	639.93843	1325.62364	-481.48662	537.27370	1129.88004	-425.51661	562.31986	1139.96388	-503.04515	636.28545	988.84343	-495.26531	643.20944	870.82210	-520.03276	607.08583	875.61571	-553.08372	656.45568	941.77584	-116.31935	670.52787	942.46046	-329.25244	667.41842	944.08995	-115.05799	670.58334	951.74731	-289.01138	
72	0.71000000	673.64036	514.62114	-33.78335	612.17883	400.98130	-53.55565	306.41830	260.37750	-112.45740	266.87568	307.64971	-171.02842	276.26678	100.16930	-92.03782	332.74964	84.38494	-149.83870	801.81683	534.86898	-365.71603	851.77206	433.41469	-338.56725	777.16226	90.78054	-318.51130	714.02087	65.86587	-265.06935	916.85653	36.46353	-346.90186	949.66532	60.01563	-278.77607	531.12595	326.23371	-85.24724	557.12561	443.31814	-19.72064	474.18372	363.86776	-36.18692	773.90248	423.93219	-385.80010	804.55754	306.96910	-385.88924	782.19229	745.61158	-45.37750	786.04129	632.63130	-53.22687	745.04335	605.69683	-6.80307	683.07616	736.36915	10.63078	688.85690	618.77275	-3.95821	817.34471	796.70082	-395.56975	856.96120	666.08868	-374.90522	716.13791	757.90906	-428.79929	754.18314	628.63456	-398.67167	748.23257	1021.62824	-73.58132	547.05573	1057.73618	-166.33107	763.00637	1035.12404	-336.78811	549.04426	1062.37130	-264.55567	616.69676	1564.81363	-224.93462	688.29743	1500.34611	-37.79765	678.09698	1500.88806	-401.63346	753.48476	1482.55443	-201.01869	750.35453	1477.35566	-248.72174	695.44495	1331.71649	38.85103	612.30395	1111.74804	-2.12429	628.47401	1135.39544	76.36419	740.55533	1000.39331	86.40572	788.70152	888.85646	95.49290	757.63566	874.91332	121.45703	657.51841	1325.87006	-481.74462	556.18404	1129.01602	-427.07757	582.57186	1139.12513	-504.12753	659.06882	989.46587	-494.66985	668.75487	871.57833	-518.94711	632.69365	875.37611	-552.23805	669.16720	942.76882	-116.96144	683.28642	943.14894	-329.88776	680.21297	944.37696	-116.15384	683.73464	952.59189	-290.13383	
